<svg class="size-8 fill-current text-primary" viewBox="0 0 218 100" fill="none" xmlns="http://www.w3.org/2000/svg"><path fill-rule="evenodd" clip-rule="evenodd" d="M135.872 62.4739C134.512 63.2254 123.205 72.8439 122.553 74.8048C126.461 77.7677 130.261 82.0545 134.233 85.3752L138.212 89.0895C148.489 97.3769 162.767 102.387 177.567 98.8512C194.113 94.8936 204.404 86.6849 211.947 72.8368C218.345 61.0855 219.261 43.9882 213.851 31.4498C212.749 28.902 212.004 26.5761 210.523 24.4935C209.915 23.6419 209.349 22.554 208.648 21.6595C206.458 18.8827 204.204 15.8697 201.448 13.4221L192.953 6.9239C187.335 3.22391 181.002 1.69953 174.038 0.532997C159.174 -1.95752 144.725 4.54789 134.29 14.4599L68.8783 73.6669C68.3487 74.1893 68.1269 74.4112 67.54 74.8979C58.9449 82.0402 46.4064 84.0083 36.3513 78.6981C33.1738 77.0234 30.2324 74.7118 27.6273 72.4503C26.6827 71.6273 27.1908 72.2928 26.3105 71.1979C16.4987 58.9528 15.3322 45.7202 23.6268 32.2585C24.4355 30.9417 25.1225 30.2976 25.8954 29.4101C29.7314 24.9873 34.4763 21.0941 41.225 19.4981C51.3302 17.1078 60.1114 18.5535 67.9551 25.2879L73.2797 30.2331C75.8919 32.2871 78.869 35.9298 81.4741 37.4184C82.8195 36.9604 81.9392 37.2538 83.2704 36.2662L93.2253 27.3419C94.0555 26.5761 94.3203 26.1252 94.721 25.4597C93.941 24.6581 93.347 23.9711 92.4524 23.055L89.8259 20.5072C88.8812 19.5626 88.1154 19.219 87.0563 18.1742C86.2619 17.3941 85.2528 16.478 84.351 15.7337C80.7011 12.6993 77.5451 9.35716 73.2367 6.68773C55.1948 -4.49813 28.937 -0.676478 14.137 15.104C10.5229 18.9542 8.562 21.9386 5.70649 26.7979C3.25176 30.9774 1.54132 36.8459 0.618107 42.3064C-1.32135 53.7571 1.48406 64.993 6.50804 74.8621C8.03957 77.8679 10.4514 80.9596 12.8059 83.4214C13.1637 83.8007 13.1136 83.7077 13.4428 84.0656C13.7864 84.4305 13.7005 84.3733 14.044 84.7526L24.0419 92.7537C32.8589 99.2949 49.9776 101.42 61.2851 98.2357C70.1093 95.7524 76.171 91.9379 82.1468 86.0766C82.5404 85.6901 83.0414 85.3323 83.5566 84.9315L125.874 46.7364C126.611 46.0422 126.497 46.2283 127.262 45.5699L142.248 31.8434C146.464 27.9287 150.514 23.9997 155.581 21.2301C165.443 15.8268 178.125 18.3531 186.691 24.7368L190.742 28.4082C213.3 54.0791 187.214 89.7766 158.795 80.0578C151.752 77.646 146.535 72.1426 141.282 67.1544L135.872 62.4739Z" fill="#0f4af9"></path></svg>